# xmcd
#
# Track frame offsets:
#	150
#	13479
#	26447
#	40433
#	54485
#	70173
#	89579
#	103028
#	113482
#	132204
#	146864
#	162092
#
# Disc length: 2397 seconds
#
# Revision: 0
# Processed by: cddbd v1.5.1PL0 Copyright (c) Steve Scherf et al.
# Submitted via: dBpowerAMP V4.0
#
DISCID=a6095b0c
DTITLE=Vicki and Joe Price - Lookin' For Love
DYEAR=2004
DGENRE=blues
TTITLE0=Lookin' For Love
TTITLE1=I Knew
TTITLE2=Our Love
TTITLE3=Wicked Man
TTITLE4=My Man's Been Cheatin'
TTITLE5=Rock Me
TTITLE6=Missing You
TTITLE7=Build That House
TTITLE8=Mama's Gift
TTITLE9=Sisters
TTITLE10=Iowa's Child
TTITLE11=Sweet Love
EXTD=
EXTT0=
EXTT1=
EXTT2=
EXTT3=
EXTT4=
EXTT5=
EXTT6=
EXTT7=
EXTT8=
EXTT9=
EXTT10=
EXTT11=
PLAYORDER=
